<svg width="393" height="852" viewBox="0 0 393 852" fill="none" xmlns="http://www.w3.org/2000/svg">
<g clip-path="url(#clip0_33903_866)">
<rect width="393" height="852" fill="#141414"/>
<g filter="url(#filter0_f_33903_866)">
<circle cx="26" cy="130" r="170" fill="url(#paint0_linear_33903_866)"/>
</g>
<g filter="url(#filter1_f_33903_866)">
<circle cx="331" cy="479" r="170" fill="url(#paint1_linear_33903_866)" fill-opacity="0.4"/>
</g>
<g filter="url(#filter2_f_33903_866)">
<circle cx="42" cy="479" r="170" fill="url(#paint2_linear_33903_866)" fill-opacity="0.21"/>
</g>
<g opacity="0.24">
<path d="M254.443 7.01772L254.442 7.01714C252.311 4.78143 250.045 3.7659 247.87 3.56721C245.69 3.36802 243.569 3.98718 241.732 5.07533C239.895 6.1641 238.356 7.71437 237.346 9.35074C236.333 10.994 235.876 12.6829 236.128 14.059L235.515 14.3417C234.552 13.1572 232.936 12.3139 231.024 11.92C229.117 11.5271 226.95 11.5895 224.926 12.1814C222.904 12.7729 221.038 13.8889 219.712 15.5916C218.388 17.2905 217.582 19.5966 217.715 22.606L254.443 7.01772ZM254.443 7.01772C256.7 9.37458 257.395 12.3709 257.129 15.616C256.862 18.8687 255.63 22.3457 254.064 25.6079C252.5 28.8665 250.614 31.8892 249.056 34.2304C248.418 35.1884 247.837 36.0304 247.355 36.7287C247.248 36.8838 247.146 37.0317 247.049 37.1723C246.784 37.5582 246.557 37.8902 246.382 38.1588C246.298 38.2876 246.223 38.4064 246.159 38.5124M254.443 7.01772L246.159 38.5124M246.159 38.5124C246.026 38.4715 245.873 38.4323 245.707 38.3937C245.383 38.3182 244.98 38.2389 244.512 38.1531C244.081 38.0738 243.59 37.9882 243.052 37.8944L242.917 37.8709C242.326 37.7677 241.678 37.6543 240.987 37.5279C238.218 37.0218 234.745 36.3071 231.328 35.2004C227.907 34.0925 224.566 32.5992 222.049 30.5482C219.538 28.5027 217.862 25.9174 217.715 22.6062L246.159 38.5124ZM244.76 35.9243L245.066 36.0652L245.217 35.764C245.256 35.687 245.346 35.546 245.494 35.3317C245.639 35.123 245.828 34.8614 246.054 34.5504C246.121 34.4573 246.192 34.3601 246.266 34.2587C246.685 33.6838 247.199 32.9773 247.765 32.1701C249.097 30.2713 250.721 27.8067 252.083 25.1502C253.442 22.4978 254.55 19.6312 254.83 16.9316C255.111 14.2236 254.559 11.6541 252.561 9.66068C250.75 7.8326 248.764 6.99898 246.812 6.87174C244.866 6.74491 242.981 7.32127 241.361 8.26695C239.742 9.21226 238.372 10.5354 237.454 11.9288C236.75 12.9978 236.294 14.1358 236.22 15.1922C235.328 14.474 234.129 13.9933 232.816 13.7575C231.146 13.4573 229.251 13.5458 227.473 14.0764C225.694 14.6071 224.017 15.5851 222.802 17.0773C221.584 18.5738 220.848 20.5674 220.924 23.0926C220.991 25.9597 222.455 28.1454 224.594 29.8099C226.724 31.4684 229.542 32.6259 232.381 33.4586C235.223 34.2924 238.112 34.8077 240.401 35.1683C240.976 35.259 241.507 35.3389 241.991 35.4117C242.478 35.485 242.917 35.5511 243.305 35.6137C243.688 35.6753 244.009 35.7317 244.261 35.7854C244.521 35.8408 244.681 35.8879 244.76 35.9243Z" stroke="#FF0000" stroke-width="0.696761"/>
<mask id="path-5-inside-1_33903_866" fill="white">
<path d="M248.86 14.2527C243.7 8.87348 237.036 15.1083 237.692 18.6146C235.223 15.6509 226.437 16.3524 226.796 23.6179C227.162 31.7892 242.593 32.657 243.926 33.302C244.47 32.0871 254.43 20.0633 248.86 14.2527Z"/>
</mask>
<path d="M237.692 18.6146L237.157 19.0606L238.868 21.1153L238.377 18.4865L237.692 18.6146ZM226.796 23.6179L227.493 23.5868L227.492 23.5835L226.796 23.6179ZM243.926 33.302L243.623 33.9293L244.269 34.2418L244.562 33.5868L243.926 33.302ZM249.363 13.7703C247.968 12.3162 246.431 11.611 244.906 11.4777C243.393 11.3454 241.952 11.7815 240.739 12.5026C239.528 13.2225 238.514 14.2425 237.842 15.3315C237.179 16.4062 236.799 17.6321 237.007 18.7427L238.377 18.4865C238.257 17.8439 238.465 16.9756 239.028 16.0633C239.582 15.1652 240.433 14.3053 241.451 13.7005C242.467 13.097 243.618 12.7639 244.785 12.8659C245.94 12.9669 247.172 13.4995 248.357 14.735L249.363 13.7703ZM238.227 18.1686C237.477 17.2681 236.3 16.6992 235.037 16.4416C233.763 16.1821 232.33 16.2226 230.99 16.6111C229.647 17.0003 228.369 17.7476 227.451 18.9258C226.526 20.1121 226.003 21.6868 226.101 23.6523L227.492 23.5835C227.41 21.9163 227.851 20.6788 228.55 19.7826C229.255 18.8785 230.26 18.2735 231.378 17.9495C232.497 17.625 233.701 17.5917 234.758 17.8071C235.825 18.0245 236.672 18.4793 237.157 19.0606L238.227 18.1686ZM226.1 23.649C226.203 25.94 227.37 27.6969 228.999 29.0273C230.614 30.3463 232.712 31.2738 234.783 31.9451C236.863 32.6189 238.964 33.0497 240.613 33.3512C241.486 33.5107 242.109 33.6128 242.696 33.7211C242.969 33.7713 243.189 33.8152 243.359 33.855C243.443 33.8749 243.509 33.8923 243.558 33.9072C243.611 33.9232 243.628 33.9315 243.623 33.9293L244.23 32.6748C244.07 32.5977 243.864 32.5423 243.678 32.4984C243.474 32.4507 243.227 32.4019 242.949 32.3506C242.435 32.256 241.631 32.1207 240.864 31.9804C239.234 31.6825 237.204 31.2647 235.213 30.6195C233.215 29.9719 231.303 29.11 229.88 27.948C228.471 26.7973 227.573 25.3815 227.493 23.5868L226.1 23.649ZM244.562 33.5868C244.562 33.5874 244.565 33.5814 244.572 33.567C244.58 33.5532 244.59 33.5349 244.604 33.5116C244.632 33.4646 244.669 33.405 244.717 33.3312C244.813 33.1834 244.94 32.9958 245.097 32.7675C245.408 32.3148 245.825 31.7161 246.29 31.0158C247.221 29.615 248.363 27.786 249.314 25.8019C250.262 23.8249 251.041 21.6508 251.21 19.5658C251.38 17.4655 250.931 15.4062 249.363 13.7705L248.357 14.7348C249.574 16.0044 249.968 17.6271 249.821 19.4534C249.672 21.2952 248.971 23.2924 248.057 25.1996C247.147 27.0996 246.045 28.8675 245.13 30.2444C244.672 30.9331 244.265 31.5184 243.949 31.9785C243.792 32.2066 243.655 32.4076 243.548 32.5722C243.449 32.7245 243.35 32.8852 243.29 33.0173L244.562 33.5868Z" fill="#FF0000" mask="url(#path-5-inside-1_33903_866)"/>
<path d="M263.811 61.8733L263.812 61.874C266.378 64.5532 267.168 67.9593 266.865 71.6482C266.562 75.3457 265.162 79.2983 263.382 83.0066C261.604 86.7109 259.459 90.1471 257.688 92.8084C256.963 93.8975 256.303 94.8548 255.755 95.6487C255.633 95.8248 255.517 95.9929 255.407 96.1526C255.105 96.5913 254.848 96.9688 254.648 97.2741C254.553 97.4205 254.467 97.5555 254.396 97.676C254.244 97.6296 254.07 97.585 253.882 97.541C253.513 97.4552 253.054 97.3651 252.523 97.2676C252.033 97.1775 251.475 97.0803 250.864 96.9737L250.71 96.9468C250.038 96.8294 249.302 96.7006 248.515 96.5568C245.368 95.9816 241.42 95.1691 237.536 93.911C233.647 92.6516 229.85 90.9541 226.988 88.6226C224.134 86.2974 222.228 83.3585 222.061 79.5944C221.91 76.1733 222.826 73.5518 224.331 71.6205C225.839 69.6849 227.96 68.4163 230.259 67.7438C232.559 67.071 235.022 67.0001 237.19 67.4467C239.364 67.8945 241.201 68.8532 242.296 70.1996L242.993 69.8783C242.706 68.314 243.225 66.3941 244.377 64.5261C245.525 62.6659 247.274 60.9036 249.363 59.666C251.45 58.429 253.861 57.7252 256.34 57.9516C258.813 58.1774 261.389 59.3319 263.811 61.8733ZM252.805 94.7339L253.153 94.8942L253.325 94.5518C253.369 94.4642 253.47 94.304 253.639 94.0603C253.804 93.8231 254.018 93.5257 254.275 93.1721C254.352 93.0664 254.433 92.9558 254.517 92.8405C254.993 92.1871 255.577 91.3839 256.221 90.4663C257.735 88.3078 259.581 85.5061 261.129 82.4864C262.674 79.4713 263.934 76.2126 264.252 73.1437C264.572 70.0655 263.944 67.1446 261.673 64.8786C259.614 62.8004 257.356 61.8527 255.137 61.708C252.925 61.5639 250.782 62.2191 248.941 63.2941C247.1 64.3687 245.544 65.8727 244.5 67.4567C243.699 68.6719 243.181 69.9655 243.097 71.1664C242.082 70.35 240.72 69.8036 239.228 69.5355C237.328 69.1943 235.174 69.2949 233.153 69.898C231.131 70.5013 229.225 71.6131 227.844 73.3094C226.459 75.0106 225.622 77.2768 225.708 80.1474C225.785 83.4066 227.449 85.8912 229.88 87.7834C232.303 89.6687 235.506 90.9845 238.732 91.931C241.964 92.8789 245.248 93.4647 247.85 93.8746C248.504 93.9777 249.107 94.0685 249.657 94.1513C250.211 94.2346 250.71 94.3097 251.151 94.3808C251.586 94.451 251.951 94.515 252.237 94.576C252.533 94.639 252.715 94.6926 252.805 94.7339Z" stroke="#FF0000" stroke-width="0.792053"/>
<mask id="path-8-inside-2_33903_866" fill="white">
<path d="M257.465 70.0934C251.6 63.9786 244.025 71.0661 244.77 75.0519C241.963 71.6829 231.976 72.4803 232.384 80.7395C232.8 90.0284 250.341 91.0148 251.857 91.7481C252.476 90.367 263.797 76.6987 257.465 70.0934Z"/>
</mask>
<path d="M244.77 75.0519L244.162 75.5589L246.107 77.8946L245.549 74.9063L244.77 75.0519ZM232.384 80.7395L233.176 80.7042L233.176 80.7004L232.384 80.7395ZM251.857 91.7481L251.512 92.4611L252.247 92.8163L252.58 92.0717L251.857 91.7481ZM258.037 69.5452C256.451 67.8922 254.705 67.0905 252.971 66.9389C251.251 66.7885 249.613 67.2843 248.234 68.104C246.857 68.9224 245.704 70.0819 244.94 71.3198C244.186 72.5415 243.755 73.9351 243.992 75.1975L245.549 74.9063C245.412 74.1758 245.648 73.1888 246.288 72.1517C246.918 71.1307 247.886 70.1532 249.043 69.4658C250.198 68.7797 251.507 68.4011 252.833 68.517C254.147 68.6318 255.546 69.2373 256.894 70.6417L258.037 69.5452ZM245.379 74.545C244.526 73.5213 243.188 72.8746 241.751 72.5818C240.304 72.2867 238.675 72.3327 237.151 72.7744C235.625 73.2168 234.172 74.0664 233.128 75.4057C232.077 76.7542 231.483 78.5443 231.593 80.7786L233.176 80.7004C233.082 78.8052 233.583 77.3984 234.377 76.3797C235.179 75.3519 236.322 74.6641 237.592 74.2959C238.865 73.927 240.234 73.8891 241.435 74.134C242.648 74.3811 243.611 74.8981 244.162 75.5589L245.379 74.545ZM231.593 80.7749C231.71 83.3792 233.036 85.3764 234.888 86.8887C236.724 88.3881 239.109 89.4424 241.464 90.2056C243.827 90.9715 246.216 91.4612 248.091 91.804C249.083 91.9853 249.791 92.1014 250.459 92.2244C250.768 92.2815 251.019 92.3314 251.212 92.3767C251.308 92.3993 251.383 92.419 251.438 92.436C251.498 92.4542 251.517 92.4636 251.512 92.4611L252.202 91.035C252.021 90.9474 251.787 90.8845 251.574 90.8346C251.343 90.7803 251.062 90.7248 250.746 90.6666C250.162 90.559 249.248 90.4051 248.376 90.2457C246.523 89.907 244.216 89.4321 241.952 88.6987C239.68 87.9625 237.507 86.9827 235.89 85.6618C234.288 84.3537 233.267 82.7443 233.176 80.7042L231.593 80.7749ZM252.58 92.0717C252.58 92.0725 252.583 92.0656 252.592 92.0493C252.6 92.0336 252.612 92.0128 252.627 91.9863C252.659 91.9329 252.701 91.8651 252.756 91.7813C252.865 91.6132 253.01 91.4 253.188 91.1404C253.542 90.6259 254.015 89.9452 254.544 89.1492C255.603 87.5568 256.901 85.4776 257.982 83.2221C259.059 80.9749 259.945 78.5033 260.136 76.1333C260.33 73.7456 259.819 71.4048 258.037 69.5453L256.893 70.6415C258.277 72.0847 258.726 73.9294 258.558 76.0055C258.388 78.0991 257.592 80.3694 256.553 82.5375C255.518 84.6974 254.265 86.707 253.225 88.2723C252.705 89.0551 252.242 89.7205 251.883 90.2435C251.704 90.5028 251.549 90.7313 251.427 90.9184C251.315 91.0916 251.202 91.2742 251.134 91.4244L252.58 92.0717Z" fill="#FF0000" mask="url(#path-8-inside-2_33903_866)"/>
<path d="M321.443 23.0177L321.442 23.0171C319.311 20.7814 317.045 19.7659 314.87 19.5672C312.69 19.368 310.569 19.9872 308.732 21.0753C306.895 22.1641 305.356 23.7144 304.346 25.3507C303.333 26.994 302.876 28.6829 303.128 30.059L302.515 30.3417C301.552 29.1572 299.936 28.3139 298.024 27.92C296.117 27.5271 293.95 27.5895 291.926 28.1814C289.904 28.7729 288.038 29.8889 286.712 31.5916C285.388 33.2905 284.582 35.5966 284.715 38.606L321.443 23.0177ZM321.443 23.0177C323.7 25.3746 324.395 28.3709 324.129 31.616C323.862 34.8687 322.63 38.3457 321.064 41.6079C319.5 44.8665 317.614 47.8892 316.056 50.2304C315.418 51.1884 314.837 52.0304 314.355 52.7287C314.248 52.8838 314.146 53.0317 314.049 53.1723C313.784 53.5582 313.557 53.8902 313.382 54.1588C313.298 54.2876 313.223 54.4064 313.159 54.5124M321.443 23.0177L313.159 54.5124M313.159 54.5124C313.026 54.4715 312.873 54.4323 312.707 54.3937C312.383 54.3182 311.98 54.2389 311.512 54.1531C311.081 54.0738 310.59 53.9882 310.052 53.8944L309.917 53.8709C309.326 53.7677 308.678 53.6543 307.987 53.5279C305.218 53.0218 301.745 52.3071 298.328 51.2004C294.907 50.0925 291.566 48.5992 289.049 46.5482C286.538 44.5027 284.862 41.9174 284.715 38.6062L313.159 54.5124ZM311.76 51.9243L312.066 52.0652L312.217 51.764C312.256 51.687 312.346 51.546 312.494 51.3317C312.639 51.123 312.828 50.8614 313.054 50.5504C313.121 50.4573 313.192 50.3601 313.266 50.2587C313.685 49.6838 314.199 48.9773 314.765 48.1701C316.097 46.2713 317.721 43.8067 319.083 41.1502C320.442 38.4978 321.55 35.6312 321.83 32.9316C322.111 30.2236 321.559 27.6541 319.561 25.6607C317.75 23.8326 315.764 22.999 313.812 22.8717C311.866 22.7449 309.981 23.3213 308.361 24.2669C306.742 25.2123 305.372 26.5354 304.454 27.9288C303.75 28.9978 303.294 30.1358 303.22 31.1922C302.328 30.474 301.129 29.9933 299.816 29.7575C298.146 29.4573 296.251 29.5458 294.473 30.0764C292.694 30.6071 291.017 31.5851 289.802 33.0773C288.584 34.5738 287.848 36.5674 287.924 39.0926C287.991 41.9597 289.455 44.1454 291.594 45.8099C293.724 47.4684 296.542 48.6259 299.381 49.4586C302.223 50.2924 305.112 50.8077 307.401 51.1683C307.976 51.259 308.507 51.3389 308.991 51.4117C309.478 51.485 309.917 51.5511 310.305 51.6137C310.688 51.6753 311.009 51.7317 311.261 51.7854C311.521 51.8408 311.681 51.8879 311.76 51.9243Z" stroke="#FF0000" stroke-width="0.696761"/>
<mask id="path-11-inside-3_33903_866" fill="white">
<path d="M315.86 30.2527C310.7 24.8735 304.036 31.1083 304.692 34.6146C302.223 31.6509 293.437 32.3524 293.796 39.6179C294.162 47.7892 309.593 48.657 310.926 49.302C311.47 48.0871 321.43 36.0633 315.86 30.2527Z"/>
</mask>
<path d="M304.692 34.6146L304.157 35.0606L305.868 37.1153L305.377 34.4865L304.692 34.6146ZM293.796 39.6179L294.493 39.5868L294.492 39.5835L293.796 39.6179ZM310.926 49.302L310.623 49.9293L311.269 50.2418L311.562 49.5868L310.926 49.302ZM316.363 29.7703C314.968 28.3162 313.431 27.611 311.906 27.4777C310.393 27.3454 308.952 27.7815 307.739 28.5026C306.528 29.2225 305.514 30.2425 304.842 31.3315C304.179 32.4062 303.799 33.6321 304.007 34.7427L305.377 34.4865C305.257 33.8439 305.465 32.9756 306.028 32.0633C306.582 31.1652 307.433 30.3053 308.451 29.7005C309.467 29.097 310.618 28.7639 311.785 28.8659C312.94 28.9669 314.172 29.4995 315.357 30.735L316.363 29.7703ZM305.227 34.1686C304.477 33.2681 303.3 32.6992 302.037 32.4416C300.763 32.1821 299.33 32.2226 297.99 32.6111C296.647 33.0003 295.369 33.7476 294.451 34.9258C293.526 36.1121 293.003 37.6868 293.101 39.6523L294.492 39.5835C294.41 37.9163 294.851 36.6788 295.55 35.7826C296.255 34.8785 297.26 34.2735 298.378 33.9495C299.497 33.625 300.701 33.5917 301.758 33.8071C302.825 34.0245 303.672 34.4793 304.157 35.0606L305.227 34.1686ZM293.1 39.649C293.203 41.94 294.37 43.6969 295.999 45.0273C297.614 46.3463 299.712 47.2738 301.783 47.9451C303.863 48.6189 305.964 49.0497 307.613 49.3512C308.486 49.5107 309.109 49.6128 309.696 49.7211C309.969 49.7713 310.189 49.8152 310.359 49.855C310.443 49.8749 310.509 49.8923 310.558 49.9072C310.611 49.9232 310.628 49.9315 310.623 49.9293L311.23 48.6748C311.07 48.5977 310.864 48.5423 310.678 48.4984C310.474 48.4507 310.227 48.4019 309.949 48.3506C309.435 48.256 308.631 48.1207 307.864 47.9804C306.234 47.6825 304.204 47.2647 302.213 46.6195C300.215 45.9719 298.303 45.11 296.88 43.948C295.471 42.7973 294.573 41.3815 294.493 39.5868L293.1 39.649ZM311.562 49.5868C311.562 49.5874 311.565 49.5814 311.572 49.567C311.58 49.5532 311.59 49.5349 311.604 49.5116C311.632 49.4646 311.669 49.405 311.717 49.3312C311.813 49.1834 311.94 48.9958 312.097 48.7675C312.408 48.3148 312.825 47.7161 313.29 47.0158C314.221 45.615 315.363 43.786 316.314 41.8019C317.262 39.8249 318.041 37.6508 318.21 35.5658C318.38 33.4655 317.931 31.4062 316.363 29.7705L315.357 30.7348C316.574 32.0044 316.968 33.6271 316.821 35.4534C316.672 37.2952 315.971 39.2924 315.057 41.1996C314.147 43.0996 313.045 44.8675 312.13 46.2444C311.672 46.9331 311.265 47.5184 310.949 47.9785C310.792 48.2066 310.655 48.4076 310.548 48.5722C310.449 48.7245 310.35 48.8852 310.29 49.0173L311.562 49.5868Z" fill="#FF0000" mask="url(#path-11-inside-3_33903_866)"/>
<path d="M315.928 85.0862L315.929 85.0869C318.438 87.7064 319.21 91.0367 318.914 94.6434C318.617 98.2586 317.248 102.123 315.508 105.749C313.77 109.371 311.673 112.73 309.941 115.332C309.233 116.397 308.587 117.333 308.051 118.109C307.932 118.281 307.818 118.446 307.711 118.602C307.416 119.031 307.164 119.4 306.969 119.699C306.876 119.842 306.792 119.974 306.722 120.092C306.574 120.046 306.404 120.002 306.22 119.96C305.859 119.876 305.411 119.788 304.891 119.692C304.412 119.604 303.867 119.509 303.269 119.405L303.118 119.379C302.461 119.264 301.742 119.138 300.973 118.997C297.896 118.435 294.035 117.64 290.237 116.41C286.436 115.179 282.723 113.519 279.925 111.24C277.134 108.966 275.271 106.093 275.107 102.412C274.96 99.0676 275.855 96.5045 277.327 94.6163C278.801 92.7238 280.875 91.4834 283.123 90.826C285.372 90.1681 287.78 90.0988 289.9 90.5355C292.025 90.9733 293.821 91.9106 294.892 93.227L295.573 92.9129C295.292 91.3834 295.8 89.5063 296.927 87.6799C298.049 85.8612 299.759 84.1381 301.801 82.928C303.842 81.7186 306.2 81.0304 308.623 81.2518C311.041 81.4726 313.559 82.6014 315.928 85.0862ZM305.167 117.215L305.507 117.372L305.675 117.037C305.718 116.951 305.818 116.795 305.983 116.556C306.143 116.324 306.353 116.034 306.605 115.688C306.68 115.585 306.758 115.476 306.84 115.364C307.306 114.725 307.878 113.939 308.507 113.042C309.987 110.932 311.792 108.193 313.305 105.24C314.816 102.292 316.048 99.1061 316.359 96.1056C316.671 93.096 316.058 90.2402 313.837 88.0246C311.824 85.9927 309.617 85.066 307.447 84.9246C305.285 84.7837 303.189 85.4243 301.389 86.4753C299.589 87.526 298.067 88.9966 297.047 90.5452C296.264 91.7334 295.757 92.9982 295.675 94.1724C294.683 93.3741 293.351 92.8399 291.892 92.5777C290.035 92.2441 287.929 92.3425 285.953 92.9322C283.976 93.5221 282.112 94.6091 280.762 96.2676C279.408 97.9309 278.589 100.147 278.674 102.953C278.748 106.14 280.376 108.569 282.753 110.419C285.121 112.263 288.253 113.549 291.408 114.474C294.567 115.401 297.778 115.974 300.322 116.375C300.961 116.476 301.552 116.564 302.089 116.645C302.63 116.727 303.118 116.8 303.55 116.87C303.975 116.938 304.331 117.001 304.612 117.061C304.901 117.122 305.079 117.175 305.167 117.215Z" stroke="#FF0000" stroke-width="0.774412"/>
<mask id="path-14-inside-4_33903_866" fill="white">
<path d="M309.723 93.12C303.989 87.1413 296.582 94.0709 297.311 97.968C294.567 94.6741 284.802 95.4537 285.201 103.529C285.607 112.611 302.758 113.575 304.24 114.292C304.845 112.942 315.914 99.5782 309.723 93.12Z"/>
</mask>
<path d="M297.311 97.968L296.716 98.4637L298.619 100.747L298.072 97.8257L297.311 97.968ZM285.201 103.529L285.975 103.494L285.975 103.491L285.201 103.529ZM304.24 114.292L303.903 114.989L304.621 115.337L304.947 114.609L304.24 114.292ZM310.282 92.5839C308.732 90.9677 307.024 90.1839 305.33 90.0357C303.647 89.8887 302.046 90.3734 300.698 91.1749C299.351 91.975 298.225 93.1087 297.478 94.319C296.74 95.5135 296.319 96.8761 296.55 98.1104L298.072 97.8257C297.939 97.1115 298.17 96.1464 298.796 95.1324C299.412 94.1342 300.358 93.1784 301.489 92.5063C302.618 91.8355 303.898 91.4653 305.195 91.5787C306.479 91.6909 307.847 92.2829 309.165 93.656L310.282 92.5839ZM297.906 97.4724C297.072 96.4715 295.764 95.8392 294.36 95.5529C292.944 95.2644 291.352 95.3094 289.862 95.7413C288.37 96.1738 286.949 97.0045 285.929 98.314C284.901 99.6324 284.32 101.383 284.428 103.567L285.975 103.491C285.883 101.638 286.374 100.262 287.15 99.2663C287.933 98.2614 289.051 97.5889 290.293 97.2288C291.538 96.8681 292.876 96.8311 294.05 97.0705C295.236 97.3121 296.178 97.8176 296.716 98.4637L297.906 97.4724ZM284.428 103.564C284.542 106.11 285.839 108.063 287.649 109.541C289.444 111.007 291.776 112.038 294.079 112.784C296.389 113.533 298.724 114.012 300.558 114.347C301.528 114.524 302.22 114.638 302.873 114.758C303.176 114.814 303.421 114.863 303.61 114.907C303.704 114.929 303.776 114.948 303.831 114.965C303.889 114.983 303.908 114.992 303.903 114.989L304.578 113.595C304.4 113.509 304.172 113.448 303.964 113.399C303.738 113.346 303.463 113.292 303.154 113.235C302.583 113.13 301.689 112.979 300.837 112.823C299.025 112.492 296.769 112.028 294.556 111.311C292.335 110.591 290.21 109.633 288.629 108.342C287.063 107.063 286.064 105.489 285.975 103.494L284.428 103.564ZM304.947 114.609C304.947 114.61 304.95 114.603 304.958 114.587C304.967 114.571 304.978 114.551 304.993 114.525C305.024 114.473 305.066 114.407 305.119 114.325C305.226 114.16 305.367 113.952 305.542 113.698C305.887 113.195 306.35 112.53 306.868 111.751C307.903 110.194 309.172 108.162 310.228 105.956C311.282 103.759 312.148 101.343 312.335 99.0253C312.524 96.6908 312.025 94.4021 310.283 92.5841L309.164 93.6559C310.517 95.0669 310.956 96.8705 310.792 98.9003C310.626 100.947 309.848 103.167 308.832 105.287C307.82 107.399 306.595 109.364 305.578 110.894C305.069 111.659 304.616 112.31 304.265 112.821C304.091 113.075 303.939 113.298 303.82 113.481C303.71 113.65 303.599 113.829 303.534 113.976L304.947 114.609Z" fill="#FF0000" mask="url(#path-14-inside-4_33903_866)"/>
<path d="M378.443 54.0177L378.442 54.0171C376.311 51.7814 374.045 50.7659 371.87 50.5672C369.69 50.368 367.569 50.9872 365.732 52.0753C363.895 53.1641 362.356 54.7144 361.346 56.3507C360.333 57.994 359.876 59.6829 360.128 61.059L359.515 61.3417C358.552 60.1572 356.936 59.3139 355.024 58.92C353.117 58.5271 350.95 58.5895 348.926 59.1814C346.904 59.7729 345.038 60.8889 343.712 62.5916C342.388 64.2905 341.582 66.5966 341.715 69.606L378.443 54.0177ZM378.443 54.0177C380.7 56.3746 381.395 59.3709 381.129 62.616C380.862 65.8687 379.63 69.3457 378.064 72.6079C376.5 75.8665 374.614 78.8892 373.056 81.2304C372.418 82.1884 371.837 83.0304 371.355 83.7287C371.248 83.8838 371.146 84.0317 371.049 84.1723C370.784 84.5582 370.557 84.8902 370.382 85.1588C370.298 85.2876 370.223 85.4064 370.159 85.5124M378.443 54.0177L370.159 85.5124M370.159 85.5124C370.026 85.4715 369.873 85.4323 369.707 85.3937C369.383 85.3182 368.98 85.2389 368.512 85.1531C368.081 85.0738 367.59 84.9882 367.052 84.8944L366.917 84.8709C366.326 84.7677 365.678 84.6543 364.987 84.5279C362.218 84.0218 358.745 83.3071 355.328 82.2004C351.907 81.0925 348.566 79.5992 346.049 77.5482C343.538 75.5027 341.862 72.9174 341.715 69.6062L370.159 85.5124ZM368.76 82.9243L369.066 83.0652L369.217 82.764C369.256 82.687 369.346 82.546 369.494 82.3317C369.639 82.123 369.828 81.8614 370.054 81.5504C370.121 81.4573 370.192 81.3601 370.266 81.2587C370.685 80.6838 371.199 79.9773 371.765 79.1701C373.097 77.2713 374.721 74.8067 376.083 72.1502C377.442 69.4978 378.55 66.6312 378.83 63.9316C379.111 61.2236 378.559 58.6541 376.561 56.6607C374.75 54.8326 372.764 53.999 370.812 53.8717C368.866 53.7449 366.981 54.3213 365.361 55.2669C363.742 56.2123 362.372 57.5354 361.454 58.9288C360.75 59.9978 360.294 61.1358 360.22 62.1922C359.328 61.474 358.129 60.9933 356.816 60.7575C355.146 60.4573 353.251 60.5458 351.473 61.0764C349.694 61.6071 348.017 62.5851 346.802 64.0773C345.584 65.5738 344.848 67.5674 344.924 70.0926C344.991 72.9597 346.455 75.1454 348.594 76.8099C350.724 78.4684 353.542 79.6259 356.381 80.4586C359.223 81.2924 362.112 81.8077 364.401 82.1683C364.976 82.259 365.507 82.3389 365.991 82.4117C366.478 82.485 366.917 82.5511 367.305 82.6137C367.688 82.6753 368.009 82.7317 368.261 82.7854C368.521 82.8408 368.681 82.8879 368.76 82.9243Z" stroke="#FF0000" stroke-width="0.696761"/>
<mask id="path-17-inside-5_33903_866" fill="white">
<path d="M372.86 61.2527C367.7 55.8735 361.036 62.1083 361.692 65.6146C359.223 62.6509 350.437 63.3524 350.796 70.6179C351.162 78.7892 366.593 79.657 367.926 80.302C368.47 79.0871 378.43 67.0633 372.86 61.2527Z"/>
</mask>
<path d="M361.692 65.6146L361.157 66.0606L362.868 68.1153L362.377 65.4865L361.692 65.6146ZM350.796 70.6179L351.493 70.5868L351.492 70.5835L350.796 70.6179ZM367.926 80.302L367.623 80.9293L368.269 81.2418L368.562 80.5868L367.926 80.302ZM373.363 60.7703C371.968 59.3162 370.431 58.611 368.906 58.4777C367.393 58.3454 365.952 58.7815 364.739 59.5026C363.528 60.2225 362.514 61.2425 361.842 62.3315C361.179 63.4062 360.799 64.6321 361.007 65.7427L362.377 65.4865C362.257 64.8439 362.465 63.9756 363.028 63.0633C363.582 62.1652 364.433 61.3053 365.451 60.7005C366.467 60.097 367.618 59.7639 368.785 59.8659C369.94 59.9669 371.172 60.4995 372.357 61.735L373.363 60.7703ZM362.227 65.1686C361.477 64.2681 360.3 63.6992 359.037 63.4416C357.763 63.1821 356.33 63.2226 354.99 63.6111C353.647 64.0003 352.369 64.7476 351.451 65.9258C350.526 67.1121 350.003 68.6868 350.101 70.6523L351.492 70.5835C351.41 68.9163 351.851 67.6788 352.55 66.7826C353.255 65.8785 354.26 65.2735 355.378 64.9495C356.497 64.625 357.701 64.5917 358.758 64.8071C359.825 65.0245 360.672 65.4793 361.157 66.0606L362.227 65.1686ZM350.1 70.649C350.203 72.94 351.37 74.6969 352.999 76.0273C354.614 77.3463 356.712 78.2738 358.783 78.9451C360.863 79.6189 362.964 80.0497 364.613 80.3512C365.486 80.5107 366.109 80.6128 366.696 80.7211C366.969 80.7713 367.189 80.8152 367.359 80.855C367.443 80.8749 367.509 80.8923 367.558 80.9072C367.611 80.9232 367.628 80.9315 367.623 80.9293L368.23 79.6748C368.07 79.5977 367.864 79.5423 367.678 79.4984C367.474 79.4507 367.227 79.4019 366.949 79.3506C366.435 79.256 365.631 79.1207 364.864 78.9804C363.234 78.6825 361.204 78.2647 359.213 77.6195C357.215 76.9719 355.303 76.11 353.88 74.948C352.471 73.7973 351.573 72.3815 351.493 70.5868L350.1 70.649ZM368.562 80.5868C368.562 80.5874 368.565 80.5814 368.572 80.567C368.58 80.5532 368.59 80.5349 368.604 80.5116C368.632 80.4646 368.669 80.405 368.717 80.3312C368.813 80.1834 368.94 79.9958 369.097 79.7675C369.408 79.3148 369.825 78.7161 370.29 78.0158C371.221 76.615 372.363 74.786 373.314 72.8019C374.262 70.8249 375.041 68.6508 375.21 66.5658C375.38 64.4655 374.931 62.4062 373.363 60.7705L372.357 61.7348C373.574 63.0044 373.968 64.6271 373.821 66.4534C373.672 68.2952 372.971 70.2924 372.057 72.1996C371.147 74.0996 370.045 75.8675 369.13 77.2444C368.672 77.9331 368.265 78.5184 367.949 78.9785C367.792 79.2066 367.655 79.4076 367.548 79.5722C367.449 79.7245 367.35 79.8852 367.29 80.0173L368.562 80.5868Z" fill="#FF0000" mask="url(#path-17-inside-5_33903_866)"/>
<path d="M379.711 115.692L379.711 115.691C377.241 113.101 374.616 111.924 372.095 111.694C369.568 111.463 367.111 112.18 364.982 113.441C362.853 114.703 361.071 116.499 359.901 118.396C358.726 120.3 358.196 122.257 358.489 123.851L357.779 124.179C356.663 122.806 354.79 121.829 352.574 121.373C350.364 120.917 347.854 120.99 345.509 121.676C343.165 122.361 341.003 123.654 339.466 125.627C337.932 127.596 336.999 130.268 337.152 133.755L379.711 115.692ZM379.711 115.692C382.327 118.423 383.132 121.895 382.823 125.655C382.514 129.425 381.087 133.454 379.273 137.234C377.46 141.01 375.274 144.512 373.469 147.225C372.73 148.335 372.057 149.311 371.498 150.12C371.374 150.3 371.256 150.471 371.144 150.634C370.836 151.081 370.573 151.466 370.37 151.777C370.273 151.926 370.186 152.064 370.113 152.187M379.711 115.692L370.113 152.187M370.113 152.187C369.958 152.14 369.781 152.094 369.589 152.049C369.213 151.962 368.746 151.87 368.204 151.771C367.704 151.679 367.136 151.58 366.514 151.471L366.356 151.444C365.67 151.324 364.92 151.193 364.119 151.046C360.911 150.46 356.886 149.631 352.926 148.349C348.963 147.065 345.092 145.335 342.175 142.958C339.265 140.588 337.323 137.592 337.152 133.755L370.113 152.187ZM368.491 149.188L368.846 149.351L369.021 149.002C369.066 148.913 369.17 148.75 369.342 148.501C369.51 148.259 369.728 147.956 369.99 147.596C370.069 147.488 370.151 147.375 370.236 147.258C370.721 146.592 371.317 145.773 371.973 144.838C373.517 142.637 375.399 139.782 376.976 136.703C378.551 133.63 379.836 130.308 380.16 127.18C380.486 124.042 379.846 121.065 377.531 118.755C375.432 116.636 373.131 115.67 370.869 115.523C368.614 115.376 366.43 116.044 364.553 117.14C362.676 118.235 361.089 119.768 360.025 121.383C359.209 122.622 358.681 123.94 358.596 125.164C357.561 124.332 356.172 123.775 354.651 123.502C352.715 123.154 350.52 123.257 348.459 123.871C346.398 124.486 344.455 125.62 343.047 127.349C341.636 129.083 340.782 131.393 340.87 134.319C340.948 137.641 342.645 140.174 345.123 142.103C347.592 144.025 350.858 145.366 354.147 146.331C357.44 147.297 360.788 147.894 363.44 148.312C364.107 148.417 364.722 148.51 365.283 148.594C365.847 148.679 366.356 148.755 366.805 148.828C367.249 148.899 367.62 148.965 367.913 149.027C368.214 149.091 368.4 149.146 368.491 149.188Z" stroke="#FF0000" stroke-width="0.807378"/>
<mask id="path-20-inside-6_33903_866" fill="white">
<path d="M373.24 124.07C367.261 117.837 359.54 125.062 360.299 129.125C357.438 125.69 347.258 126.503 347.674 134.922C348.097 144.391 365.978 145.396 367.524 146.144C368.154 144.736 379.694 130.803 373.24 124.07Z"/>
</mask>
<path d="M360.299 129.125L359.679 129.641L361.663 132.022L361.093 128.976L360.299 129.125ZM347.674 134.922L348.481 134.886L348.481 134.882L347.674 134.922ZM367.524 146.144L367.172 146.871L367.921 147.233L368.261 146.474L367.524 146.144ZM373.823 123.511C372.207 121.826 370.426 121.009 368.659 120.855C366.906 120.701 365.236 121.207 363.83 122.042C362.427 122.876 361.252 124.058 360.473 125.32C359.705 126.566 359.265 127.986 359.506 129.273L361.093 128.976C360.954 128.232 361.195 127.225 361.847 126.168C362.489 125.127 363.476 124.131 364.655 123.43C365.832 122.731 367.167 122.345 368.519 122.463C369.858 122.58 371.284 123.197 372.658 124.629L373.823 123.511ZM360.92 128.608C360.05 127.564 358.687 126.905 357.223 126.607C355.747 126.306 354.086 126.353 352.533 126.803C350.977 127.254 349.497 128.12 348.432 129.485C347.361 130.86 346.755 132.684 346.868 134.962L348.481 134.882C348.385 132.95 348.896 131.516 349.706 130.478C350.523 129.43 351.688 128.729 352.983 128.354C354.28 127.978 355.675 127.939 356.9 128.189C358.136 128.441 359.118 128.968 359.679 129.641L360.92 128.608ZM346.868 134.958C346.986 137.613 348.339 139.649 350.226 141.19C352.098 142.719 354.529 143.793 356.929 144.571C359.338 145.352 361.773 145.851 363.685 146.201C364.696 146.386 365.418 146.504 366.098 146.629C366.414 146.688 366.67 146.738 366.866 146.785C366.964 146.808 367.04 146.828 367.097 146.845C367.158 146.864 367.177 146.873 367.172 146.871L367.875 145.417C367.691 145.328 367.452 145.263 367.235 145.213C367 145.157 366.713 145.101 366.391 145.041C365.796 144.932 364.864 144.775 363.975 144.612C362.086 144.267 359.734 143.783 357.427 143.035C355.111 142.285 352.896 141.286 351.248 139.94C349.615 138.606 348.574 136.966 348.481 134.886L346.868 134.958ZM368.261 146.474C368.26 146.474 368.263 146.467 368.272 146.451C368.281 146.435 368.293 146.414 368.309 146.387C368.341 146.332 368.384 146.263 368.44 146.178C368.551 146.006 368.699 145.789 368.881 145.524C369.241 145 369.724 144.306 370.263 143.495C371.342 141.871 372.665 139.752 373.767 137.453C374.865 135.162 375.768 132.643 375.963 130.227C376.16 127.793 375.64 125.407 373.823 123.511L372.657 124.629C374.068 126.1 374.525 127.98 374.354 130.097C374.181 132.231 373.37 134.545 372.311 136.755C371.255 138.957 369.979 141.005 368.918 142.601C368.388 143.399 367.916 144.077 367.55 144.61C367.368 144.874 367.209 145.107 367.086 145.298C366.971 145.475 366.855 145.661 366.787 145.814L368.261 146.474Z" fill="#FF0000" mask="url(#path-20-inside-6_33903_866)"/>
</g>
</g>
<defs>
<filter id="filter0_f_33903_866" x="-279.914" y="-175.914" width="611.828" height="611.828" filterUnits="userSpaceOnUse" color-interpolation-filters="sRGB">
<feFlood flood-opacity="0" result="BackgroundImageFix"/>
<feBlend mode="normal" in="SourceGraphic" in2="BackgroundImageFix" result="shape"/>
<feGaussianBlur stdDeviation="67.957" result="effect1_foregroundBlur_33903_866"/>
</filter>
<filter id="filter1_f_33903_866" x="25.0859" y="173.086" width="611.828" height="611.828" filterUnits="userSpaceOnUse" color-interpolation-filters="sRGB">
<feFlood flood-opacity="0" result="BackgroundImageFix"/>
<feBlend mode="normal" in="SourceGraphic" in2="BackgroundImageFix" result="shape"/>
<feGaussianBlur stdDeviation="67.957" result="effect1_foregroundBlur_33903_866"/>
</filter>
<filter id="filter2_f_33903_866" x="-263.914" y="173.086" width="611.828" height="611.828" filterUnits="userSpaceOnUse" color-interpolation-filters="sRGB">
<feFlood flood-opacity="0" result="BackgroundImageFix"/>
<feBlend mode="normal" in="SourceGraphic" in2="BackgroundImageFix" result="shape"/>
<feGaussianBlur stdDeviation="67.957" result="effect1_foregroundBlur_33903_866"/>
</filter>
<linearGradient id="paint0_linear_33903_866" x1="26" y1="-40" x2="332.5" y2="548.5" gradientUnits="userSpaceOnUse">
<stop stop-color="#FF0000" stop-opacity="0.24"/>
<stop offset="1" stop-color="#990000" stop-opacity="0"/>
</linearGradient>
<linearGradient id="paint1_linear_33903_866" x1="331" y1="309" x2="637.5" y2="897.5" gradientUnits="userSpaceOnUse">
<stop stop-color="#FF0000" stop-opacity="0.24"/>
<stop offset="1" stop-color="#990000" stop-opacity="0"/>
</linearGradient>
<linearGradient id="paint2_linear_33903_866" x1="42" y1="309" x2="348.5" y2="897.5" gradientUnits="userSpaceOnUse">
<stop stop-color="#FF0000" stop-opacity="0.24"/>
<stop offset="1" stop-color="#990000" stop-opacity="0"/>
</linearGradient>
<clipPath id="clip0_33903_866">
<rect width="393" height="852" fill="white"/>
</clipPath>
</defs>
</svg>
